<?xml version="1.0" encoding="UTF-8"?><svg id="Layer_2" xmlns="http://www.w3.org/2000/svg" viewBox="0 0 849.43 259.37"><defs><style>.cls-1,.cls-2{stroke-width:0px;}.cls-2{fill:#231f20;}</style></defs><g id="Layer_2-2"><path class="cls-2" d="m45.55,123.5v53.36c0,3.99,1.91,6.81,5.73,8.46,3.81,1.65,9.54,2.99,17.18,4.03,2.08.35,3.12,1.82,3.12,4.42,0,1.22-.17,2.69-.52,4.43-5.04-.35-10.76-.65-17.18-.91-6.42-.26-13.36-.39-20.82-.39-4.51,0-9.63.13-15.36.39-5.73.26-11.11.56-16.14.91-.35-1.73-.52-3.12-.52-4.17,0-2.43.87-3.82,2.6-4.17,6.94-1.39,11.58-2.73,13.93-4.03,2.34-1.3,3.51-3.68,3.51-7.16V46.19c0-3.47-1.35-5.99-4.03-7.55-2.69-1.56-7.51-2.77-14.45-3.64-1.74-.35-2.6-1.91-2.6-4.69,0-1.21.17-2.51.52-3.9,4.86.35,10.02.65,15.49.91s10.63.39,15.49.39h36.7c18.74,0,32.8,4.42,42.17,13.27s14.06,20.3,14.06,34.36c0,5.56-1.26,11.19-3.77,16.92-2.52,5.73-6.16,10.89-10.93,15.49-4.77,4.6-10.67,8.37-17.7,11.32-7.03,2.95-14.97,4.42-23.82,4.42h-22.65Zm13.8-10.67c12.14,0,21.52-2.69,28.11-8.07,6.59-5.38,9.89-14.49,9.89-27.33,0-5.38-.61-10.41-1.82-15.1-1.22-4.69-3.3-8.81-6.25-12.36-2.95-3.55-6.86-6.38-11.71-8.46-4.86-2.08-10.93-3.12-18.22-3.12h-13.8v74.44h13.8Z"/><path class="cls-1" d="m157.22,55.56c4.17,0,7.63-1.39,10.41-4.16s4.16-6.42,4.16-10.93c0-4.16-1.39-7.76-4.16-10.8-2.78-3.03-6.25-4.56-10.41-4.56s-7.94,1.52-10.8,4.56c-2.86,3.04-4.29,6.64-4.29,10.8,0,4.51,1.43,8.16,4.29,10.93,2.86,2.78,6.46,4.16,10.8,4.16Z"/><path class="cls-1" d="m308.2,190.39c-3.64-.52-6.86-1.65-9.63-3.38-2.78-1.73-5.99-4.86-9.63-9.37l-31.5-40.09,24.47-34.62c2.43-3.47,5.08-5.81,7.94-7.03,2.86-1.21,6.38-2.08,10.54-2.6,2.25-.17,3.38-1.39,3.38-3.64,0-1.21-.26-2.34-.78-3.38-6.25.52-12.84.78-19.78.78-7.98,0-15.36-.26-22.12-.78-.35.52-.57,1.09-.65,1.69-.09.61-.13,1.09-.13,1.43,0,2.6,1.13,3.9,3.38,3.9,3.64.35,6.03.83,7.16,1.43,1.13.61,1.69,1.43,1.69,2.47,0,1.22-.96,3.3-2.86,6.25l-18.48,26.29-19.26-24.21c-2.78-3.29-4.16-5.99-4.16-8.07,0-1.39.74-2.38,2.21-2.99,1.47-.61,4.47-1.08,8.98-1.43,2.25,0,3.38-1.21,3.38-3.64,0-.35-.09-.82-.26-1.43-.18-.61-.35-1.17-.52-1.69-8.68.52-18.4.78-29.15.78-5.21,0-9.94-.04-14.19-.13-4.25-.09-8.55-.3-12.88-.65-.35.52-.56,1.17-.65,1.95-.09.78-.13,1.35-.13,1.69,0,2.08,1.13,3.3,3.38,3.64,3.81.52,6.72,1.35,8.72,2.47,1.99,1.13,3.94,2.91,5.86,5.34l31.24,41.39-26.03,36.44c-2.08,2.85-4.51,5.05-7.31,6.6-.59.33-1.37.71-2.97,1.34-5.03,1.97-8.53,3.35-13.2,3.48,0,0-5.79.17-12.05-2.83-1.15-.55-2.39-1.3-3.22-2.71-.55-.93-.82-2.03-.82-3.28v-71.84c0-5.55.26-10.02.78-13.41.52-3.38.78-6.29.78-8.72,0-2.6-1.23-3.9-3.69-3.9-1.41,0-3.69.39-6.84,1.17-3.16.78-6.76,1.52-10.79,2.21-2.62.35-5.97.65-10.05.91-4.08.26-7.25.39-9.5.39-.35,1.39-.52,2.52-.52,3.38,0,2.08,1.13,3.3,3.38,3.64,6.07.52,10.02,1.91,11.84,4.16,1.82,2.26,2.73,5.99,2.73,11.19v70.8c0,2.78-1.39,4.78-4.17,5.99-2.78,1.22-6.42,2.26-10.93,3.12-1.56.35-2.34,1.39-2.34,3.12,0,.52.09,1.3.26,2.34.17,1.04.26,1.65.26,1.82.52,0,1.73-.09,3.64-.26,1.91-.17,4.17-.35,6.77-.52,2.6-.17,5.43-.3,8.5-.39,4.5-.13,7.9-.13,9.07-.13,13.37.01,29.85-.31,51.93,0,2.59.04,6.86.02,12.49.39,3.99.26,8.24.56,12.75.91.35-1.73.52-3.12.52-4.17,0-1.91-.87-3.03-2.6-3.38-4.51-.87-7.94-1.78-10.28-2.73-2.34-.95-3.51-2.47-3.51-4.55,0-.87.3-1.82.91-2.86.61-1.04,1.43-2.34,2.47-3.9l17.7-26.29,21.34,28.11c.87,1.22,1.69,2.34,2.47,3.38.78,1.04,1.17,2,1.17,2.86,0,1.74-1,2.99-2.99,3.77-2,.78-4.99,1.52-8.98,2.21-1.74.17-2.6,1.3-2.6,3.38,0,1.04.17,2.43.52,4.17,5.03-.35,10.15-.65,15.36-.91,5.21-.26,9.89-.39,14.06-.39s9.15.13,14.45.39c5.29.26,10.37.56,15.23.91.35-1.73.52-3.12.52-4.17,0-2.25-.7-3.47-2.08-3.64Z"/><path class="cls-2" d="m401.93,172.69c1.21-1.21,2.51-1.82,3.89-1.82,1.73,0,3.37,1.48,4.93,4.42-2.26,3.12-4.86,6.16-7.81,9.11-2.95,2.95-6.47,5.6-10.54,7.94-4.08,2.34-8.72,4.21-13.93,5.6s-11.19,2.08-17.96,2.08-13.54-1.13-19.78-3.38c-6.25-2.25-11.76-5.73-16.53-10.41-4.77-4.69-8.59-10.5-11.45-17.44-2.86-6.94-4.29-15.1-4.29-24.47,0-8.85,1.69-17,5.08-24.47,3.38-7.46,7.76-13.84,13.14-19.13,5.38-5.29,11.32-9.41,17.83-12.36,6.51-2.95,12.8-4.42,18.87-4.42,16.14,0,27.89,4.69,35.27,14.06,7.37,9.37,11.06,21.6,11.06,36.7,0,1.04-.52,1.56-1.56,1.56l-75.23,3.38c0,6.77.95,13.02,2.85,18.74,1.9,5.73,4.58,10.67,8.04,14.84,3.46,4.16,7.65,7.42,12.58,9.76,4.93,2.34,10.51,3.51,16.73,3.51,5.53,0,10.85-1.3,15.96-3.9,5.1-2.6,9.38-5.9,12.84-9.89Zm-42.07-79.39c-8.64,0-15.37,3.38-20.21,10.15-4.84,6.77-7.25,15.62-7.25,26.55l48.96-2.34c2.59,0,3.88-1.13,3.88-3.38,0-3.29-.52-6.77-1.55-10.41-1.04-3.64-2.59-6.98-4.67-10.02-2.07-3.03-4.71-5.55-7.9-7.55-3.2-1.99-6.95-2.99-11.27-2.99Z"/><path class="cls-2" d="m477.65,168.53c2.6-6.59,5.46-13.41,8.59-20.43,3.12-7.03,6.03-13.67,8.72-19.91,2.69-6.25,4.9-11.88,6.64-16.92,1.73-5.03,2.6-8.76,2.6-11.19,0-1.56-.7-2.73-2.08-3.51-1.39-.78-2.91-1.47-4.55-2.08-1.65-.61-3.17-1.21-4.55-1.82-1.39-.61-2.08-1.6-2.08-2.99,0-.35.08-.87.26-1.56.17-.69.35-1.3.52-1.82,6.77.52,13.97.78,21.61.78,3.99,0,7.46-.04,10.41-.13,2.95-.09,5.73-.3,8.33-.65.35.52.56,1.13.65,1.82.08.7.13,1.22.13,1.56,0,1.91-1.13,3.12-3.38,3.64-2.6.52-4.64,1.04-6.12,1.56-1.48.52-2.69,1.22-3.64,2.08-.96.87-1.82,2-2.6,3.38-.78,1.39-1.69,3.38-2.73,5.99l-53.36,125.98c-3.47,8.33-8.68,14.92-15.62,19.78-6.94,4.86-14.41,7.29-22.39,7.29-1.39,0-2.39-.39-2.99-1.17-.61-.78-.91-1.69-.91-2.73,0-1.91.26-3.95.78-6.12.52-2.17,1.21-4.17,2.08-5.99.87-1.82,1.86-3.3,2.99-4.42,1.13-1.13,2.3-1.69,3.51-1.69,1.39,0,2.64.13,3.77.39,1.13.26,2.38.39,3.77.39,4.69,0,8.15-.91,10.41-2.73,2.25-1.82,4.25-4.73,5.99-8.72l13.28-30.98-40.08-89.28c-1.22-2.43-2.26-4.38-3.12-5.86-.87-1.47-1.82-2.69-2.86-3.64-1.04-.95-2.26-1.65-3.64-2.08-1.39-.43-3.21-.82-5.47-1.17-2.26-.52-3.38-1.82-3.38-3.9,0-.35.04-.87.13-1.56.09-.69.3-1.3.65-1.82,3.47.35,6.98.56,10.54.65,3.55.09,7.59.13,12.1.13h7.55c4.17,0,8.07-.04,11.71-.13,3.64-.09,7.29-.3,10.93-.65.35.52.56,1.13.65,1.82.09.7.13,1.22.13,1.56,0,2.08-1.13,3.21-3.38,3.38-3.99.7-6.68,1.43-8.07,2.21-1.39.78-2.08,1.87-2.08,3.25,0,.87.52,3.04,1.56,6.51,1.04,3.47,2.78,7.81,5.21,13.01l22.91,50.5Z"/><path class="cls-2" d="m849.43,112.31c0,10.24-1.78,20.39-5.34,30.46-3.56,10.07-8.94,19.13-16.14,27.2-7.2,8.07-16.31,14.58-27.33,19.52-11.02,4.95-23.91,7.42-38.65,7.42h-53.36c-4.51,0-9.63.13-15.36.39-5.73.26-11.28.56-16.66.91-.35-1.73-.52-3.12-.52-4.17,0-2.43.95-3.82,2.86-4.17,6.42-1.56,11.02-3.03,13.8-4.42,2.77-1.39,4.17-3.64,4.17-6.77V46.19c0-3.47-1.3-5.9-3.91-7.29-2.6-1.39-7.29-2.69-14.06-3.9-1.04-.17-1.78-.69-2.21-1.56-.43-.87-.65-1.82-.65-2.86s.17-2.43.52-4.17c3.64.35,6.81.57,9.5.65,2.69.09,5.25.22,7.68.39,2.43.17,4.82.26,7.16.26h60.78c14.58,0,27.37,2.26,38.39,6.77,11.02,4.51,20.17,10.59,27.46,18.22,7.29,7.64,12.75,16.57,16.4,26.81,3.64,10.24,5.47,21.17,5.47,32.8Zm-27.33,4.95c0-26.72-6.64-46.55-19.91-59.48-13.28-12.93-32.67-19.39-58.18-19.39h-22.65v138.48c0,1.74.43,3.21,1.3,4.42.87,1.22,2.34,2.17,4.43,2.86,2.08.7,4.95,1.22,8.59,1.56,3.64.35,8.24.52,13.79.52,13.36,0,24.64-1.6,33.84-4.82,9.2-3.21,16.66-7.81,22.39-13.8,5.73-5.99,9.89-13.23,12.49-21.74,2.6-8.5,3.9-18.05,3.9-28.63Z"/><path class="cls-2" d="m647.66,174.24c4.74-4.75,7.01-9.41,7.5-10.45,3.26-6.9,3.39-12.9,3.39-18.64,0-12.42-2.8-22.47-8.02-30.61-1.86-2.9-3.41-5.27-6.3-7.8-11.47-10.06-35.36-14.84-38.06-15.29-.52-.09-2.25-.35-2.93-1.58-.33-.6-.36-1.33-.39-2.15-.03-.76-.06-1.5.19-2.12.59-1.45,2.61-1.91,3.12-2.04,4.28-1.06,16.34-6.65,18.93-8.46,6.58-4.6,15.8-15.11,16.43-30.03.13-3.05.72-17-10.07-27.44-10.26-9.93-23.31-9.41-26.07-9.3-12.41.5-27.75,7.43-30.34,17.67-.94,3.7-.16,7.66-3.32,10.42-2.45,2.14-5.76,2.23-8.94,2.33-2.8.08-6.87.2-10.63-2.48-1.17-.83-3.72-2.65-4.54-5.82-1.3-5,2.48-10.44,6.16-13,2.37-1.65,3.68-1.4,8.12-4.15,2.6-1.61,4.32-3.04,4.74-3.37,3.7-2.95,18.8-10.26,38.7-9.92,11.55.19,31.5.53,45.72,15.71,11.49,12.27,12.54,27.07,12.66,29.34.23,4.12.89,18.31-9.4,30.3-4.69,5.47-11.32,9.61-20.27,12.12,34.52,6.06,48.97,26.35,48.97,56.65,0,6.78-.25,18.77-8.27,29.89-3.45,4.79-7.33,8.26-9.51,10.13-1.41,1.21-7.83,6.62-17.68,10.88-15.69,6.8-30.62,6.6-41.92,6.34-14.15-.32-25.93-.59-37.66-7.05-12.53-6.9-20.41-17.83-20.41-17.84-.55-.76-.98-1.4-1.27-1.84-.46-.71-.94-1.51-1.43-2.43-.83-1.55-1.7-3.56-2.44-6.27-.75-2.77-2.21-6.89-5.25-11.06-4.61-6.33-9.41-8.01-8.82-10.16.61-2.26,6.43-2.75,16.38-2.5,6.57.17,12.75-.63,15.08,2.79,1.66,2.45,1.1,5.26.97,7.46-.7,12.58,15.78,25.35,27.21,30.64,15.2,7.04,29.2,4.44,34.62,3.35,5.39-1.08,16.19-3.37,25.06-12.26Z"/></g></svg>